<mxfile host="app.diagrams.net" modified="2024-05-16T00:20:37.904Z" agent="Mozilla/5.0 (Windows NT 10.0; Win64; x64; rv:109.0) Gecko/20100101 Firefox/115.0" etag="UdU7WhkpqyIaoU34G58U" version="24.4.2" type="device">
  <diagram name="Page-1" id="SUqmDuOZxgVVc6Tvxn6X">
    <mxGraphModel dx="2607" dy="1375" grid="1" gridSize="10" guides="1" tooltips="1" connect="1" arrows="1" fold="1" page="1" pageScale="1" pageWidth="2339" pageHeight="3300" math="0" shadow="0">
      <root>
        <mxCell id="0" />
        <mxCell id="1" parent="0" />
        <mxCell id="UHSjBWqxveViBDuQUsT--30" style="edgeStyle=orthogonalEdgeStyle;rounded=0;orthogonalLoop=1;jettySize=auto;html=1;entryX=0.5;entryY=1;entryDx=0;entryDy=0;endArrow=none;endFill=0;" parent="1" source="UHSjBWqxveViBDuQUsT--1" target="UHSjBWqxveViBDuQUsT--29" edge="1">
          <mxGeometry relative="1" as="geometry" />
        </mxCell>
        <mxCell id="UHSjBWqxveViBDuQUsT--89" style="edgeStyle=orthogonalEdgeStyle;rounded=0;orthogonalLoop=1;jettySize=auto;html=1;exitX=0.25;exitY=0;exitDx=0;exitDy=0;endArrow=oval;endFill=1;" parent="1" edge="1">
          <mxGeometry relative="1" as="geometry">
            <mxPoint x="1189.86" y="1910" as="targetPoint" />
            <mxPoint x="1189.86" y="1950" as="sourcePoint" />
            <Array as="points">
              <mxPoint x="1189.86" y="1920" />
              <mxPoint x="1189.86" y="1920" />
            </Array>
          </mxGeometry>
        </mxCell>
        <mxCell id="UHSjBWqxveViBDuQUsT--98" style="edgeStyle=orthogonalEdgeStyle;rounded=0;orthogonalLoop=1;jettySize=auto;html=1;exitX=1;exitY=1;exitDx=0;exitDy=0;endArrow=oval;endFill=0;" parent="1" edge="1">
          <mxGeometry relative="1" as="geometry">
            <mxPoint x="1290.923076923077" y="2050" as="targetPoint" />
            <mxPoint x="1291" y="2010" as="sourcePoint" />
            <Array as="points">
              <mxPoint x="1291" y="2030" />
              <mxPoint x="1291" y="2030" />
            </Array>
          </mxGeometry>
        </mxCell>
        <mxCell id="UHSjBWqxveViBDuQUsT--162" style="edgeStyle=orthogonalEdgeStyle;rounded=0;orthogonalLoop=1;jettySize=auto;html=1;exitX=1;exitY=0.75;exitDx=0;exitDy=0;endArrow=none;endFill=0;" parent="1" source="UHSjBWqxveViBDuQUsT--1" target="UHSjBWqxveViBDuQUsT--33" edge="1">
          <mxGeometry relative="1" as="geometry" />
        </mxCell>
        <mxCell id="UHSjBWqxveViBDuQUsT--1" value="Utente" style="rounded=0;whiteSpace=wrap;html=1;" parent="1" vertex="1">
          <mxGeometry x="1180" y="1950" width="120" height="60" as="geometry" />
        </mxCell>
        <mxCell id="UHSjBWqxveViBDuQUsT--102" style="edgeStyle=orthogonalEdgeStyle;rounded=0;orthogonalLoop=1;jettySize=auto;html=1;exitX=1;exitY=0.25;exitDx=0;exitDy=0;endArrow=oval;endFill=0;" parent="1" source="UHSjBWqxveViBDuQUsT--3" edge="1">
          <mxGeometry relative="1" as="geometry">
            <mxPoint x="1340" y="2204.974358974359" as="targetPoint" />
          </mxGeometry>
        </mxCell>
        <mxCell id="UHSjBWqxveViBDuQUsT--104" style="edgeStyle=orthogonalEdgeStyle;rounded=0;orthogonalLoop=1;jettySize=auto;html=1;exitX=1;exitY=0.75;exitDx=0;exitDy=0;endArrow=oval;endFill=1;" parent="1" source="UHSjBWqxveViBDuQUsT--3" edge="1">
          <mxGeometry relative="1" as="geometry">
            <mxPoint x="1340" y="2234.974358974359" as="targetPoint" />
          </mxGeometry>
        </mxCell>
        <mxCell id="UHSjBWqxveViBDuQUsT--3" value="Abbonamento" style="rounded=0;whiteSpace=wrap;html=1;" parent="1" vertex="1">
          <mxGeometry x="1180" y="2190" width="120" height="60" as="geometry" />
        </mxCell>
        <mxCell id="UHSjBWqxveViBDuQUsT--5" style="edgeStyle=orthogonalEdgeStyle;rounded=0;orthogonalLoop=1;jettySize=auto;html=1;entryX=0.5;entryY=1;entryDx=0;entryDy=0;endArrow=none;endFill=0;" parent="1" source="UHSjBWqxveViBDuQUsT--4" target="UHSjBWqxveViBDuQUsT--1" edge="1">
          <mxGeometry relative="1" as="geometry" />
        </mxCell>
        <mxCell id="UHSjBWqxveViBDuQUsT--6" style="edgeStyle=orthogonalEdgeStyle;rounded=0;orthogonalLoop=1;jettySize=auto;html=1;entryX=0.5;entryY=0;entryDx=0;entryDy=0;endArrow=none;endFill=0;" parent="1" source="UHSjBWqxveViBDuQUsT--4" target="UHSjBWqxveViBDuQUsT--3" edge="1">
          <mxGeometry relative="1" as="geometry" />
        </mxCell>
        <mxCell id="UHSjBWqxveViBDuQUsT--4" value="Sottoscrive" style="rhombus;whiteSpace=wrap;html=1;" parent="1" vertex="1">
          <mxGeometry x="1190" y="2060" width="100" height="80" as="geometry" />
        </mxCell>
        <mxCell id="UHSjBWqxveViBDuQUsT--109" style="edgeStyle=orthogonalEdgeStyle;rounded=0;orthogonalLoop=1;jettySize=auto;html=1;exitX=0.25;exitY=0;exitDx=0;exitDy=0;endArrow=oval;endFill=0;" parent="1" source="UHSjBWqxveViBDuQUsT--9" edge="1">
          <mxGeometry relative="1" as="geometry">
            <mxPoint x="889.9166666666667" y="1900" as="targetPoint" />
          </mxGeometry>
        </mxCell>
        <mxCell id="UHSjBWqxveViBDuQUsT--115" style="edgeStyle=orthogonalEdgeStyle;rounded=0;orthogonalLoop=1;jettySize=auto;html=1;endArrow=oval;endFill=0;" parent="1" source="UHSjBWqxveViBDuQUsT--9" edge="1">
          <mxGeometry relative="1" as="geometry">
            <mxPoint x="920" y="1900" as="targetPoint" />
          </mxGeometry>
        </mxCell>
        <mxCell id="UHSjBWqxveViBDuQUsT--9" value="Album" style="rounded=0;whiteSpace=wrap;html=1;" parent="1" vertex="1">
          <mxGeometry x="860" y="1950" width="120" height="60" as="geometry" />
        </mxCell>
        <mxCell id="UHSjBWqxveViBDuQUsT--13" style="edgeStyle=orthogonalEdgeStyle;rounded=0;orthogonalLoop=1;jettySize=auto;html=1;entryX=0;entryY=0.5;entryDx=0;entryDy=0;endArrow=none;endFill=0;" parent="1" source="UHSjBWqxveViBDuQUsT--12" target="UHSjBWqxveViBDuQUsT--1" edge="1">
          <mxGeometry relative="1" as="geometry">
            <Array as="points">
              <mxPoint x="1060" y="2100" />
              <mxPoint x="1060" y="1980" />
            </Array>
          </mxGeometry>
        </mxCell>
        <mxCell id="UHSjBWqxveViBDuQUsT--20" style="edgeStyle=orthogonalEdgeStyle;rounded=0;orthogonalLoop=1;jettySize=auto;html=1;entryX=0.5;entryY=1;entryDx=0;entryDy=0;endArrow=none;endFill=0;" parent="1" source="UHSjBWqxveViBDuQUsT--12" target="UHSjBWqxveViBDuQUsT--9" edge="1">
          <mxGeometry relative="1" as="geometry" />
        </mxCell>
        <mxCell id="UHSjBWqxveViBDuQUsT--12" value="Accede" style="rhombus;whiteSpace=wrap;html=1;" parent="1" vertex="1">
          <mxGeometry x="870" y="2060" width="100" height="80" as="geometry" />
        </mxCell>
        <mxCell id="UHSjBWqxveViBDuQUsT--16" style="edgeStyle=orthogonalEdgeStyle;rounded=0;orthogonalLoop=1;jettySize=auto;html=1;entryX=0;entryY=0.5;entryDx=0;entryDy=0;endArrow=none;endFill=0;" parent="1" source="UHSjBWqxveViBDuQUsT--15" target="UHSjBWqxveViBDuQUsT--9" edge="1">
          <mxGeometry relative="1" as="geometry" />
        </mxCell>
        <mxCell id="UHSjBWqxveViBDuQUsT--15" value="Compone" style="rhombus;whiteSpace=wrap;html=1;" parent="1" vertex="1">
          <mxGeometry x="680" y="1940" width="100" height="80" as="geometry" />
        </mxCell>
        <mxCell id="UHSjBWqxveViBDuQUsT--18" style="edgeStyle=orthogonalEdgeStyle;rounded=0;orthogonalLoop=1;jettySize=auto;html=1;entryX=0;entryY=0.5;entryDx=0;entryDy=0;endArrow=none;endFill=0;" parent="1" source="UHSjBWqxveViBDuQUsT--17" target="UHSjBWqxveViBDuQUsT--15" edge="1">
          <mxGeometry relative="1" as="geometry" />
        </mxCell>
        <mxCell id="UHSjBWqxveViBDuQUsT--48" style="edgeStyle=orthogonalEdgeStyle;rounded=0;orthogonalLoop=1;jettySize=auto;html=1;entryX=0.5;entryY=1;entryDx=0;entryDy=0;endArrow=none;endFill=0;" parent="1" source="UHSjBWqxveViBDuQUsT--17" target="UHSjBWqxveViBDuQUsT--47" edge="1">
          <mxGeometry relative="1" as="geometry" />
        </mxCell>
        <mxCell id="UHSjBWqxveViBDuQUsT--138" style="edgeStyle=orthogonalEdgeStyle;rounded=0;orthogonalLoop=1;jettySize=auto;html=1;endArrow=oval;endFill=0;" parent="1" source="UHSjBWqxveViBDuQUsT--17" edge="1">
          <mxGeometry relative="1" as="geometry">
            <mxPoint x="440" y="1980" as="targetPoint" />
          </mxGeometry>
        </mxCell>
        <mxCell id="UHSjBWqxveViBDuQUsT--140" style="edgeStyle=orthogonalEdgeStyle;rounded=0;orthogonalLoop=1;jettySize=auto;html=1;exitX=0;exitY=0.75;exitDx=0;exitDy=0;endArrow=oval;endFill=0;" parent="1" source="UHSjBWqxveViBDuQUsT--17" edge="1">
          <mxGeometry relative="1" as="geometry">
            <mxPoint x="440" y="1995" as="targetPoint" />
          </mxGeometry>
        </mxCell>
        <mxCell id="UHSjBWqxveViBDuQUsT--143" style="edgeStyle=orthogonalEdgeStyle;rounded=0;orthogonalLoop=1;jettySize=auto;html=1;exitX=0.25;exitY=1;exitDx=0;exitDy=0;endArrow=oval;endFill=0;" parent="1" source="UHSjBWqxveViBDuQUsT--17" edge="1">
          <mxGeometry relative="1" as="geometry">
            <mxPoint x="510" y="2050" as="targetPoint" />
          </mxGeometry>
        </mxCell>
        <mxCell id="UHSjBWqxveViBDuQUsT--145" style="edgeStyle=orthogonalEdgeStyle;rounded=0;orthogonalLoop=1;jettySize=auto;html=1;exitX=0.25;exitY=0;exitDx=0;exitDy=0;endArrow=oval;endFill=0;" parent="1" source="UHSjBWqxveViBDuQUsT--17" edge="1">
          <mxGeometry relative="1" as="geometry">
            <mxPoint x="510" y="1910" as="targetPoint" />
          </mxGeometry>
        </mxCell>
        <mxCell id="UHSjBWqxveViBDuQUsT--17" value="Brano" style="rounded=0;whiteSpace=wrap;html=1;" parent="1" vertex="1">
          <mxGeometry x="480" y="1950" width="120" height="60" as="geometry" />
        </mxCell>
        <mxCell id="UHSjBWqxveViBDuQUsT--22" style="edgeStyle=orthogonalEdgeStyle;rounded=0;orthogonalLoop=1;jettySize=auto;html=1;entryX=0;entryY=0.5;entryDx=0;entryDy=0;endArrow=none;endFill=0;" parent="1" source="UHSjBWqxveViBDuQUsT--21" target="UHSjBWqxveViBDuQUsT--1" edge="1">
          <mxGeometry relative="1" as="geometry">
            <Array as="points">
              <mxPoint x="1100" y="2220" />
              <mxPoint x="1100" y="2000" />
              <mxPoint x="1180" y="2000" />
            </Array>
          </mxGeometry>
        </mxCell>
        <mxCell id="UHSjBWqxveViBDuQUsT--21" value="Vede" style="rhombus;whiteSpace=wrap;html=1;" parent="1" vertex="1">
          <mxGeometry x="890" y="2190" width="60" height="60" as="geometry" />
        </mxCell>
        <mxCell id="UHSjBWqxveViBDuQUsT--24" style="edgeStyle=orthogonalEdgeStyle;rounded=0;orthogonalLoop=1;jettySize=auto;html=1;entryX=0;entryY=0.5;entryDx=0;entryDy=0;endArrow=none;endFill=0;" parent="1" source="UHSjBWqxveViBDuQUsT--23" target="UHSjBWqxveViBDuQUsT--21" edge="1">
          <mxGeometry relative="1" as="geometry" />
        </mxCell>
        <mxCell id="UHSjBWqxveViBDuQUsT--120" style="edgeStyle=orthogonalEdgeStyle;rounded=0;orthogonalLoop=1;jettySize=auto;html=1;exitX=0;exitY=0.25;exitDx=0;exitDy=0;endArrow=oval;endFill=0;" parent="1" source="UHSjBWqxveViBDuQUsT--23" edge="1">
          <mxGeometry relative="1" as="geometry">
            <mxPoint x="440" y="2204.862068965517" as="targetPoint" />
          </mxGeometry>
        </mxCell>
        <mxCell id="UHSjBWqxveViBDuQUsT--123" style="edgeStyle=orthogonalEdgeStyle;rounded=0;orthogonalLoop=1;jettySize=auto;html=1;endArrow=oval;endFill=0;" parent="1" source="UHSjBWqxveViBDuQUsT--23" edge="1">
          <mxGeometry relative="1" as="geometry">
            <mxPoint x="440" y="2220" as="targetPoint" />
          </mxGeometry>
        </mxCell>
        <mxCell id="UHSjBWqxveViBDuQUsT--23" value="Punteggio" style="rounded=0;whiteSpace=wrap;html=1;" parent="1" vertex="1">
          <mxGeometry x="480" y="2190" width="120" height="60" as="geometry" />
        </mxCell>
        <mxCell id="UHSjBWqxveViBDuQUsT--32" style="edgeStyle=orthogonalEdgeStyle;rounded=0;orthogonalLoop=1;jettySize=auto;html=1;entryX=0.5;entryY=1;entryDx=0;entryDy=0;endArrow=none;endFill=0;" parent="1" source="UHSjBWqxveViBDuQUsT--29" target="UHSjBWqxveViBDuQUsT--31" edge="1">
          <mxGeometry relative="1" as="geometry" />
        </mxCell>
        <mxCell id="UHSjBWqxveViBDuQUsT--29" value="&lt;div&gt;Svolge&lt;/div&gt;" style="rhombus;whiteSpace=wrap;html=1;" parent="1" vertex="1">
          <mxGeometry x="1190" y="1750" width="100" height="80" as="geometry" />
        </mxCell>
        <mxCell id="UHSjBWqxveViBDuQUsT--51" style="edgeStyle=orthogonalEdgeStyle;rounded=0;orthogonalLoop=1;jettySize=auto;html=1;entryX=0.5;entryY=1;entryDx=0;entryDy=0;endArrow=none;endFill=0;" parent="1" source="UHSjBWqxveViBDuQUsT--31" target="UHSjBWqxveViBDuQUsT--49" edge="1">
          <mxGeometry relative="1" as="geometry" />
        </mxCell>
        <mxCell id="UHSjBWqxveViBDuQUsT--55" style="edgeStyle=orthogonalEdgeStyle;rounded=0;orthogonalLoop=1;jettySize=auto;html=1;entryX=0;entryY=0.5;entryDx=0;entryDy=0;endArrow=none;endFill=0;" parent="1" source="UHSjBWqxveViBDuQUsT--31" target="UHSjBWqxveViBDuQUsT--54" edge="1">
          <mxGeometry relative="1" as="geometry" />
        </mxCell>
        <mxCell id="UHSjBWqxveViBDuQUsT--175" style="edgeStyle=orthogonalEdgeStyle;rounded=0;orthogonalLoop=1;jettySize=auto;html=1;endArrow=oval;endFill=0;" parent="1" edge="1">
          <mxGeometry relative="1" as="geometry">
            <mxPoint x="1220" y="1690" as="targetPoint" />
            <mxPoint x="1220" y="1650" as="sourcePoint" />
            <Array as="points">
              <mxPoint x="1220" y="1650" />
            </Array>
          </mxGeometry>
        </mxCell>
        <mxCell id="UHSjBWqxveViBDuQUsT--31" value="Ricerca" style="rounded=0;whiteSpace=wrap;html=1;" parent="1" vertex="1">
          <mxGeometry x="1180" y="1590" width="120" height="60" as="geometry" />
        </mxCell>
        <mxCell id="UHSjBWqxveViBDuQUsT--33" value="Crea" style="rhombus;whiteSpace=wrap;html=1;" parent="1" vertex="1">
          <mxGeometry x="1470" y="1955" width="100" height="80" as="geometry" />
        </mxCell>
        <mxCell id="UHSjBWqxveViBDuQUsT--36" style="edgeStyle=orthogonalEdgeStyle;rounded=0;orthogonalLoop=1;jettySize=auto;html=1;entryX=0.5;entryY=1;entryDx=0;entryDy=0;endArrow=none;endFill=0;" parent="1" source="UHSjBWqxveViBDuQUsT--35" target="UHSjBWqxveViBDuQUsT--33" edge="1">
          <mxGeometry relative="1" as="geometry">
            <Array as="points">
              <mxPoint x="1520" y="2035" />
            </Array>
          </mxGeometry>
        </mxCell>
        <mxCell id="UHSjBWqxveViBDuQUsT--230" style="edgeStyle=orthogonalEdgeStyle;rounded=0;orthogonalLoop=1;jettySize=auto;html=1;exitX=0.25;exitY=0;exitDx=0;exitDy=0;endArrow=oval;endFill=0;" parent="1" source="UHSjBWqxveViBDuQUsT--35" edge="1">
          <mxGeometry relative="1" as="geometry">
            <mxPoint x="1490.8095238095239" y="2140" as="targetPoint" />
          </mxGeometry>
        </mxCell>
        <mxCell id="UHSjBWqxveViBDuQUsT--234" style="edgeStyle=orthogonalEdgeStyle;rounded=0;orthogonalLoop=1;jettySize=auto;html=1;endArrow=oval;endFill=1;" parent="1" source="UHSjBWqxveViBDuQUsT--35" edge="1">
          <mxGeometry relative="1" as="geometry">
            <mxPoint x="1640" y="2220" as="targetPoint" />
          </mxGeometry>
        </mxCell>
        <mxCell id="UHSjBWqxveViBDuQUsT--35" value="Lista" style="rounded=0;whiteSpace=wrap;html=1;" parent="1" vertex="1">
          <mxGeometry x="1461" y="2190" width="120" height="60" as="geometry" />
        </mxCell>
        <mxCell id="UHSjBWqxveViBDuQUsT--42" style="edgeStyle=orthogonalEdgeStyle;rounded=0;orthogonalLoop=1;jettySize=auto;html=1;entryX=0;entryY=0.5;entryDx=0;entryDy=0;endArrow=none;endFill=0;" parent="1" source="UHSjBWqxveViBDuQUsT--39" target="UHSjBWqxveViBDuQUsT--41" edge="1">
          <mxGeometry relative="1" as="geometry" />
        </mxCell>
        <mxCell id="UHSjBWqxveViBDuQUsT--43" style="edgeStyle=orthogonalEdgeStyle;rounded=0;orthogonalLoop=1;jettySize=auto;html=1;entryX=1;entryY=0.5;entryDx=0;entryDy=0;endArrow=none;endFill=0;" parent="1" source="UHSjBWqxveViBDuQUsT--39" target="UHSjBWqxveViBDuQUsT--1" edge="1">
          <mxGeometry relative="1" as="geometry">
            <Array as="points">
              <mxPoint x="1380" y="1790" />
              <mxPoint x="1380" y="1980" />
            </Array>
          </mxGeometry>
        </mxCell>
        <mxCell id="UHSjBWqxveViBDuQUsT--39" value="Gestisce" style="rhombus;whiteSpace=wrap;html=1;" parent="1" vertex="1">
          <mxGeometry x="1470" y="1750" width="100" height="80" as="geometry" />
        </mxCell>
        <mxCell id="UHSjBWqxveViBDuQUsT--163" style="edgeStyle=orthogonalEdgeStyle;rounded=0;orthogonalLoop=1;jettySize=auto;html=1;endArrow=oval;endFill=0;" parent="1" edge="1">
          <mxGeometry relative="1" as="geometry">
            <mxPoint x="1756" y="1710" as="targetPoint" />
            <mxPoint x="1756" y="1760" as="sourcePoint" />
          </mxGeometry>
        </mxCell>
        <mxCell id="UHSjBWqxveViBDuQUsT--41" value="&lt;div&gt;Pagine&lt;/div&gt;" style="rounded=0;whiteSpace=wrap;html=1;" parent="1" vertex="1">
          <mxGeometry x="1680" y="1760" width="120" height="60" as="geometry" />
        </mxCell>
        <mxCell id="UHSjBWqxveViBDuQUsT--45" style="edgeStyle=orthogonalEdgeStyle;rounded=0;orthogonalLoop=1;jettySize=auto;html=1;entryX=0;entryY=0.25;entryDx=0;entryDy=0;endArrow=none;endFill=0;" parent="1" source="UHSjBWqxveViBDuQUsT--44" target="UHSjBWqxveViBDuQUsT--1" edge="1">
          <mxGeometry relative="1" as="geometry">
            <Array as="points">
              <mxPoint x="1060" y="1790" />
              <mxPoint x="1060" y="1960" />
              <mxPoint x="1180" y="1960" />
            </Array>
          </mxGeometry>
        </mxCell>
        <mxCell id="UHSjBWqxveViBDuQUsT--46" style="edgeStyle=orthogonalEdgeStyle;rounded=0;orthogonalLoop=1;jettySize=auto;html=1;entryX=0.5;entryY=0;entryDx=0;entryDy=0;endArrow=none;endFill=0;" parent="1" edge="1">
          <mxGeometry relative="1" as="geometry">
            <mxPoint x="880" y="1790" as="sourcePoint" />
            <mxPoint x="550" y="1950" as="targetPoint" />
            <Array as="points">
              <mxPoint x="570" y="1790" />
              <mxPoint x="570" y="1950" />
            </Array>
          </mxGeometry>
        </mxCell>
        <mxCell id="UHSjBWqxveViBDuQUsT--77" style="edgeStyle=orthogonalEdgeStyle;rounded=0;orthogonalLoop=1;jettySize=auto;html=1;entryX=0;entryY=0.5;entryDx=0;entryDy=0;endArrow=none;endFill=0;" parent="1" source="UHSjBWqxveViBDuQUsT--44" target="UHSjBWqxveViBDuQUsT--52" edge="1">
          <mxGeometry relative="1" as="geometry">
            <Array as="points">
              <mxPoint x="920" y="1420" />
              <mxPoint x="1180" y="1420" />
            </Array>
          </mxGeometry>
        </mxCell>
        <mxCell id="UHSjBWqxveViBDuQUsT--44" value="&lt;div&gt;Valuta&lt;/div&gt;" style="rhombus;whiteSpace=wrap;html=1;" parent="1" vertex="1">
          <mxGeometry x="870" y="1750" width="100" height="80" as="geometry" />
        </mxCell>
        <mxCell id="UHSjBWqxveViBDuQUsT--47" value="Di" style="rhombus;whiteSpace=wrap;html=1;" parent="1" vertex="1">
          <mxGeometry x="520" y="1670" width="40" height="40" as="geometry" />
        </mxCell>
        <mxCell id="UHSjBWqxveViBDuQUsT--49" value="Su" style="rhombus;whiteSpace=wrap;html=1;" parent="1" vertex="1">
          <mxGeometry x="1220" y="1490" width="40" height="40" as="geometry" />
        </mxCell>
        <mxCell id="UHSjBWqxveViBDuQUsT--53" style="edgeStyle=orthogonalEdgeStyle;rounded=0;orthogonalLoop=1;jettySize=auto;html=1;entryX=0.5;entryY=0;entryDx=0;entryDy=0;endArrow=none;endFill=0;" parent="1" source="UHSjBWqxveViBDuQUsT--52" target="UHSjBWqxveViBDuQUsT--49" edge="1">
          <mxGeometry relative="1" as="geometry" />
        </mxCell>
        <mxCell id="UHSjBWqxveViBDuQUsT--136" style="edgeStyle=orthogonalEdgeStyle;rounded=0;orthogonalLoop=1;jettySize=auto;html=1;exitX=0.25;exitY=1;exitDx=0;exitDy=0;entryX=0.5;entryY=0;entryDx=0;entryDy=0;endArrow=none;endFill=0;" parent="1" source="UHSjBWqxveViBDuQUsT--52" target="UHSjBWqxveViBDuQUsT--134" edge="1">
          <mxGeometry relative="1" as="geometry">
            <Array as="points">
              <mxPoint x="1210" y="1480" />
              <mxPoint x="1060" y="1480" />
            </Array>
          </mxGeometry>
        </mxCell>
        <mxCell id="UHSjBWqxveViBDuQUsT--205" style="edgeStyle=orthogonalEdgeStyle;rounded=0;orthogonalLoop=1;jettySize=auto;html=1;endArrow=oval;endFill=1;" parent="1" edge="1">
          <mxGeometry relative="1" as="geometry">
            <mxPoint x="1230" y="1320" as="targetPoint" />
            <mxPoint x="1230" y="1370" as="sourcePoint" />
          </mxGeometry>
        </mxCell>
        <mxCell id="UHSjBWqxveViBDuQUsT--52" value="Persona" style="rounded=0;whiteSpace=wrap;html=1;" parent="1" vertex="1">
          <mxGeometry x="1180" y="1370" width="120" height="60" as="geometry" />
        </mxCell>
        <mxCell id="UHSjBWqxveViBDuQUsT--59" style="edgeStyle=orthogonalEdgeStyle;rounded=0;orthogonalLoop=1;jettySize=auto;html=1;entryX=0;entryY=0.5;entryDx=0;entryDy=0;endArrow=none;endFill=0;" parent="1" source="UHSjBWqxveViBDuQUsT--54" target="UHSjBWqxveViBDuQUsT--56" edge="1">
          <mxGeometry relative="1" as="geometry" />
        </mxCell>
        <mxCell id="UHSjBWqxveViBDuQUsT--54" value="Su" style="rhombus;whiteSpace=wrap;html=1;" parent="1" vertex="1">
          <mxGeometry x="1500" y="1600" width="40" height="40" as="geometry" />
        </mxCell>
        <mxCell id="UHSjBWqxveViBDuQUsT--61" style="edgeStyle=orthogonalEdgeStyle;rounded=0;orthogonalLoop=1;jettySize=auto;html=1;entryX=0.5;entryY=1;entryDx=0;entryDy=0;endArrow=none;endFill=0;" parent="1" source="UHSjBWqxveViBDuQUsT--56" target="UHSjBWqxveViBDuQUsT--60" edge="1">
          <mxGeometry relative="1" as="geometry" />
        </mxCell>
        <mxCell id="UHSjBWqxveViBDuQUsT--189" style="edgeStyle=orthogonalEdgeStyle;rounded=0;orthogonalLoop=1;jettySize=auto;html=1;endArrow=oval;endFill=1;" parent="1" source="UHSjBWqxveViBDuQUsT--56" edge="1">
          <mxGeometry relative="1" as="geometry">
            <mxPoint x="1850" y="1620" as="targetPoint" />
          </mxGeometry>
        </mxCell>
        <mxCell id="UHSjBWqxveViBDuQUsT--56" value="Festival" style="rounded=0;whiteSpace=wrap;html=1;" parent="1" vertex="1">
          <mxGeometry x="1680" y="1590" width="120" height="60" as="geometry" />
        </mxCell>
        <mxCell id="UHSjBWqxveViBDuQUsT--63" style="edgeStyle=orthogonalEdgeStyle;rounded=0;orthogonalLoop=1;jettySize=auto;html=1;entryX=0.5;entryY=1;entryDx=0;entryDy=0;endArrow=none;endFill=0;" parent="1" source="UHSjBWqxveViBDuQUsT--60" target="UHSjBWqxveViBDuQUsT--62" edge="1">
          <mxGeometry relative="1" as="geometry" />
        </mxCell>
        <mxCell id="UHSjBWqxveViBDuQUsT--60" value="Istanza di" style="rhombus;whiteSpace=wrap;html=1;" parent="1" vertex="1">
          <mxGeometry x="1690" y="1470" width="100" height="80" as="geometry" />
        </mxCell>
        <mxCell id="UHSjBWqxveViBDuQUsT--201" style="edgeStyle=orthogonalEdgeStyle;rounded=0;orthogonalLoop=1;jettySize=auto;html=1;exitX=0.75;exitY=0;exitDx=0;exitDy=0;endArrow=oval;endFill=0;" parent="1" source="UHSjBWqxveViBDuQUsT--62" edge="1">
          <mxGeometry relative="1" as="geometry">
            <mxPoint x="1770" y="1320" as="targetPoint" />
          </mxGeometry>
        </mxCell>
        <mxCell id="UHSjBWqxveViBDuQUsT--62" value="Festival Passato" style="rounded=0;whiteSpace=wrap;html=1;" parent="1" vertex="1">
          <mxGeometry x="1680" y="1370" width="120" height="60" as="geometry" />
        </mxCell>
        <mxCell id="UHSjBWqxveViBDuQUsT--66" style="edgeStyle=orthogonalEdgeStyle;rounded=0;orthogonalLoop=1;jettySize=auto;html=1;entryX=0;entryY=0.5;entryDx=0;entryDy=0;endArrow=none;endFill=0;" parent="1" edge="1">
          <mxGeometry relative="1" as="geometry">
            <mxPoint x="1060.04" y="1259.998" as="sourcePoint" />
            <mxPoint x="1180" y="1380.03" as="targetPoint" />
            <Array as="points">
              <mxPoint x="1060" y="1380.03" />
            </Array>
          </mxGeometry>
        </mxCell>
        <mxCell id="UHSjBWqxveViBDuQUsT--69" style="edgeStyle=orthogonalEdgeStyle;rounded=0;orthogonalLoop=1;jettySize=auto;html=1;entryX=0;entryY=0.5;entryDx=0;entryDy=0;endArrow=none;endFill=0;" parent="1" source="UHSjBWqxveViBDuQUsT--64" target="UHSjBWqxveViBDuQUsT--68" edge="1">
          <mxGeometry relative="1" as="geometry">
            <Array as="points">
              <mxPoint x="1060" y="1120" />
            </Array>
          </mxGeometry>
        </mxCell>
        <mxCell id="UHSjBWqxveViBDuQUsT--64" value="Vende" style="rhombus;whiteSpace=wrap;html=1;" parent="1" vertex="1">
          <mxGeometry x="1010" y="1200" width="100" height="80" as="geometry" />
        </mxCell>
        <mxCell id="UHSjBWqxveViBDuQUsT--67" style="edgeStyle=orthogonalEdgeStyle;rounded=0;orthogonalLoop=1;jettySize=auto;html=1;entryX=1;entryY=0.5;entryDx=0;entryDy=0;endArrow=none;endFill=0;" parent="1" source="UHSjBWqxveViBDuQUsT--65" target="UHSjBWqxveViBDuQUsT--52" edge="1">
          <mxGeometry relative="1" as="geometry">
            <Array as="points">
              <mxPoint x="1420" y="1380" />
              <mxPoint x="1300" y="1380" />
            </Array>
          </mxGeometry>
        </mxCell>
        <mxCell id="UHSjBWqxveViBDuQUsT--70" style="edgeStyle=orthogonalEdgeStyle;rounded=0;orthogonalLoop=1;jettySize=auto;html=1;entryX=1;entryY=0.5;entryDx=0;entryDy=0;endArrow=none;endFill=0;" parent="1" source="UHSjBWqxveViBDuQUsT--65" target="UHSjBWqxveViBDuQUsT--68" edge="1">
          <mxGeometry relative="1" as="geometry">
            <Array as="points">
              <mxPoint x="1420" y="1120" />
            </Array>
          </mxGeometry>
        </mxCell>
        <mxCell id="UHSjBWqxveViBDuQUsT--65" value="Compra" style="rhombus;whiteSpace=wrap;html=1;" parent="1" vertex="1">
          <mxGeometry x="1370" y="1190" width="100" height="80" as="geometry" />
        </mxCell>
        <mxCell id="UHSjBWqxveViBDuQUsT--217" style="edgeStyle=orthogonalEdgeStyle;rounded=0;orthogonalLoop=1;jettySize=auto;html=1;exitX=0.75;exitY=0;exitDx=0;exitDy=0;endArrow=oval;endFill=1;" parent="1" edge="1">
          <mxGeometry relative="1" as="geometry">
            <mxPoint x="1289.0232558139535" y="1040" as="targetPoint" />
            <mxPoint x="1289" y="1090" as="sourcePoint" />
          </mxGeometry>
        </mxCell>
        <mxCell id="UHSjBWqxveViBDuQUsT--220" style="edgeStyle=orthogonalEdgeStyle;rounded=0;orthogonalLoop=1;jettySize=auto;html=1;exitX=0.25;exitY=0;exitDx=0;exitDy=0;endArrow=oval;endFill=0;" parent="1" edge="1">
          <mxGeometry relative="1" as="geometry">
            <mxPoint x="1192.0232558139535" y="1040" as="targetPoint" />
            <mxPoint x="1192" y="1090" as="sourcePoint" />
          </mxGeometry>
        </mxCell>
        <mxCell id="UHSjBWqxveViBDuQUsT--68" value="&lt;div&gt;Biglietti&lt;/div&gt;" style="rounded=0;whiteSpace=wrap;html=1;" parent="1" vertex="1">
          <mxGeometry x="1180" y="1090" width="120" height="60" as="geometry" />
        </mxCell>
        <mxCell id="UHSjBWqxveViBDuQUsT--73" style="edgeStyle=orthogonalEdgeStyle;rounded=0;orthogonalLoop=1;jettySize=auto;html=1;entryX=0.5;entryY=0;entryDx=0;entryDy=0;endArrow=none;endFill=0;" parent="1" source="UHSjBWqxveViBDuQUsT--72" target="UHSjBWqxveViBDuQUsT--68" edge="1">
          <mxGeometry relative="1" as="geometry" />
        </mxCell>
        <mxCell id="UHSjBWqxveViBDuQUsT--72" value="In" style="rhombus;whiteSpace=wrap;html=1;" parent="1" vertex="1">
          <mxGeometry x="1220" y="1000" width="40" height="40" as="geometry" />
        </mxCell>
        <mxCell id="UHSjBWqxveViBDuQUsT--76" style="edgeStyle=orthogonalEdgeStyle;rounded=0;orthogonalLoop=1;jettySize=auto;html=1;entryX=0.5;entryY=0;entryDx=0;entryDy=0;endArrow=none;endFill=0;" parent="1" source="UHSjBWqxveViBDuQUsT--74" target="UHSjBWqxveViBDuQUsT--72" edge="1">
          <mxGeometry relative="1" as="geometry" />
        </mxCell>
        <mxCell id="UHSjBWqxveViBDuQUsT--222" style="edgeStyle=orthogonalEdgeStyle;rounded=0;orthogonalLoop=1;jettySize=auto;html=1;endArrow=oval;endFill=1;" parent="1" source="UHSjBWqxveViBDuQUsT--74" edge="1">
          <mxGeometry relative="1" as="geometry">
            <mxPoint x="1240" y="840" as="targetPoint" />
          </mxGeometry>
        </mxCell>
        <mxCell id="UHSjBWqxveViBDuQUsT--74" value="Punto Vendita" style="rounded=0;whiteSpace=wrap;html=1;" parent="1" vertex="1">
          <mxGeometry x="1180" y="900" width="120" height="60" as="geometry" />
        </mxCell>
        <mxCell id="UHSjBWqxveViBDuQUsT--79" style="edgeStyle=orthogonalEdgeStyle;rounded=0;orthogonalLoop=1;jettySize=auto;html=1;entryX=0.5;entryY=0;entryDx=0;entryDy=0;endArrow=none;endFill=0;" parent="1" source="UHSjBWqxveViBDuQUsT--78" target="UHSjBWqxveViBDuQUsT--47" edge="1">
          <mxGeometry relative="1" as="geometry" />
        </mxCell>
        <mxCell id="UHSjBWqxveViBDuQUsT--82" style="edgeStyle=orthogonalEdgeStyle;rounded=0;orthogonalLoop=1;jettySize=auto;html=1;entryX=0;entryY=0.5;entryDx=0;entryDy=0;endArrow=none;endFill=0;" parent="1" source="UHSjBWqxveViBDuQUsT--78" target="UHSjBWqxveViBDuQUsT--80" edge="1">
          <mxGeometry relative="1" as="geometry" />
        </mxCell>
        <mxCell id="UHSjBWqxveViBDuQUsT--147" style="edgeStyle=orthogonalEdgeStyle;rounded=0;orthogonalLoop=1;jettySize=auto;html=1;endArrow=oval;endFill=0;" parent="1" edge="1">
          <mxGeometry relative="1" as="geometry">
            <mxPoint x="552" y="1320" as="targetPoint" />
            <mxPoint x="551.9999999999999" y="1370" as="sourcePoint" />
          </mxGeometry>
        </mxCell>
        <mxCell id="UHSjBWqxveViBDuQUsT--149" style="edgeStyle=orthogonalEdgeStyle;rounded=0;orthogonalLoop=1;jettySize=auto;html=1;exitX=0.75;exitY=0;exitDx=0;exitDy=0;endArrow=oval;endFill=0;" parent="1" edge="1">
          <mxGeometry relative="1" as="geometry">
            <mxPoint x="581.9615384615385" y="1320" as="targetPoint" />
            <mxPoint x="582.0000000000001" y="1370" as="sourcePoint" />
          </mxGeometry>
        </mxCell>
        <mxCell id="UHSjBWqxveViBDuQUsT--151" style="edgeStyle=orthogonalEdgeStyle;rounded=0;orthogonalLoop=1;jettySize=auto;html=1;exitX=0.25;exitY=0;exitDx=0;exitDy=0;endArrow=oval;endFill=0;" parent="1" edge="1">
          <mxGeometry relative="1" as="geometry">
            <mxPoint x="521.9615384615385" y="1320" as="targetPoint" />
            <mxPoint x="522" y="1370" as="sourcePoint" />
          </mxGeometry>
        </mxCell>
        <mxCell id="UHSjBWqxveViBDuQUsT--78" value="Recensione" style="rounded=0;whiteSpace=wrap;html=1;" parent="1" vertex="1">
          <mxGeometry x="480" y="1370" width="120" height="60" as="geometry" />
        </mxCell>
        <mxCell id="UHSjBWqxveViBDuQUsT--83" style="edgeStyle=orthogonalEdgeStyle;rounded=0;orthogonalLoop=1;jettySize=auto;html=1;entryX=0;entryY=0.5;entryDx=0;entryDy=0;endArrow=none;endFill=0;" parent="1" source="UHSjBWqxveViBDuQUsT--80" target="UHSjBWqxveViBDuQUsT--52" edge="1">
          <mxGeometry relative="1" as="geometry" />
        </mxCell>
        <mxCell id="UHSjBWqxveViBDuQUsT--80" value="Fa" style="rhombus;whiteSpace=wrap;html=1;" parent="1" vertex="1">
          <mxGeometry x="820" y="1380" width="40" height="40" as="geometry" />
        </mxCell>
        <mxCell id="UHSjBWqxveViBDuQUsT--90" value="&lt;font style=&quot;font-size: 8px;&quot;&gt;Username&lt;/font&gt;" style="text;html=1;align=center;verticalAlign=middle;resizable=0;points=[];autosize=1;strokeColor=none;fillColor=none;" parent="1" vertex="1">
          <mxGeometry x="1160" y="1881" width="60" height="30" as="geometry" />
        </mxCell>
        <mxCell id="UHSjBWqxveViBDuQUsT--91" style="edgeStyle=orthogonalEdgeStyle;rounded=0;orthogonalLoop=1;jettySize=auto;html=1;exitX=0.25;exitY=0;exitDx=0;exitDy=0;endArrow=oval;endFill=0;" parent="1" edge="1">
          <mxGeometry relative="1" as="geometry">
            <mxPoint x="1260" y="1910" as="targetPoint" />
            <mxPoint x="1260" y="1950" as="sourcePoint" />
            <Array as="points">
              <mxPoint x="1260" y="1920" />
              <mxPoint x="1260" y="1920" />
            </Array>
          </mxGeometry>
        </mxCell>
        <mxCell id="UHSjBWqxveViBDuQUsT--92" value="&lt;font style=&quot;font-size: 7px;&quot;&gt;Nome&lt;/font&gt;" style="text;html=1;align=center;verticalAlign=middle;resizable=0;points=[];autosize=1;strokeColor=none;fillColor=none;" parent="1" vertex="1">
          <mxGeometry x="1240" y="1881" width="40" height="30" as="geometry" />
        </mxCell>
        <mxCell id="UHSjBWqxveViBDuQUsT--93" style="edgeStyle=orthogonalEdgeStyle;rounded=0;orthogonalLoop=1;jettySize=auto;html=1;exitX=0.25;exitY=0;exitDx=0;exitDy=0;endArrow=oval;endFill=0;" parent="1" edge="1">
          <mxGeometry relative="1" as="geometry">
            <mxPoint x="1289.75" y="1910" as="targetPoint" />
            <mxPoint x="1289.75" y="1950" as="sourcePoint" />
            <Array as="points">
              <mxPoint x="1289.75" y="1920" />
              <mxPoint x="1289.75" y="1920" />
            </Array>
          </mxGeometry>
        </mxCell>
        <mxCell id="UHSjBWqxveViBDuQUsT--94" value="&lt;font style=&quot;font-size: 7px;&quot;&gt;Cognome&lt;/font&gt;" style="text;html=1;align=center;verticalAlign=middle;resizable=0;points=[];autosize=1;strokeColor=none;fillColor=none;" parent="1" vertex="1">
          <mxGeometry x="1265" y="1881" width="50" height="30" as="geometry" />
        </mxCell>
        <mxCell id="UHSjBWqxveViBDuQUsT--99" value="&lt;font style=&quot;font-size: 7px;&quot;&gt;Stato&lt;/font&gt;" style="text;html=1;align=center;verticalAlign=middle;resizable=0;points=[];autosize=1;strokeColor=none;fillColor=none;" parent="1" vertex="1">
          <mxGeometry x="1271" y="2046" width="40" height="30" as="geometry" />
        </mxCell>
        <mxCell id="UHSjBWqxveViBDuQUsT--100" style="edgeStyle=orthogonalEdgeStyle;rounded=0;orthogonalLoop=1;jettySize=auto;html=1;exitX=1;exitY=1;exitDx=0;exitDy=0;endArrow=oval;endFill=0;" parent="1" edge="1">
          <mxGeometry relative="1" as="geometry">
            <mxPoint x="1190.0030769230768" y="2050" as="targetPoint" />
            <mxPoint x="1190.08" y="2010" as="sourcePoint" />
            <Array as="points">
              <mxPoint x="1190.08" y="2030" />
              <mxPoint x="1190.08" y="2030" />
            </Array>
          </mxGeometry>
        </mxCell>
        <mxCell id="UHSjBWqxveViBDuQUsT--101" value="&lt;font style=&quot;font-size: 8px;&quot;&gt;Città&lt;/font&gt;" style="text;html=1;align=center;verticalAlign=middle;resizable=0;points=[];autosize=1;strokeColor=none;fillColor=none;" parent="1" vertex="1">
          <mxGeometry x="1170" y="2046" width="40" height="30" as="geometry" />
        </mxCell>
        <mxCell id="UHSjBWqxveViBDuQUsT--103" value="&lt;font style=&quot;font-size: 7px;&quot;&gt;Utente&lt;/font&gt;" style="text;html=1;align=center;verticalAlign=middle;resizable=0;points=[];autosize=1;strokeColor=none;fillColor=none;" parent="1" vertex="1">
          <mxGeometry x="1341" y="2188" width="40" height="30" as="geometry" />
        </mxCell>
        <mxCell id="UHSjBWqxveViBDuQUsT--105" value="&lt;font style=&quot;font-size: 7px;&quot;&gt;ID&lt;/font&gt;" style="text;html=1;align=center;verticalAlign=middle;resizable=0;points=[];autosize=1;strokeColor=none;fillColor=none;" parent="1" vertex="1">
          <mxGeometry x="1346" y="2218" width="30" height="30" as="geometry" />
        </mxCell>
        <mxCell id="UHSjBWqxveViBDuQUsT--110" value="&lt;font style=&quot;font-size: 7px;&quot;&gt;Nome&lt;/font&gt;" style="text;html=1;align=center;verticalAlign=middle;resizable=0;points=[];autosize=1;strokeColor=none;fillColor=none;" parent="1" vertex="1">
          <mxGeometry x="870" y="1868" width="40" height="30" as="geometry" />
        </mxCell>
        <mxCell id="UHSjBWqxveViBDuQUsT--116" value="&lt;font style=&quot;font-size: 7px;&quot;&gt;NomeArte&lt;/font&gt;" style="text;html=1;align=center;verticalAlign=middle;resizable=0;points=[];autosize=1;strokeColor=none;fillColor=none;" parent="1" vertex="1">
          <mxGeometry x="890" y="1868" width="60" height="30" as="geometry" />
        </mxCell>
        <mxCell id="UHSjBWqxveViBDuQUsT--117" style="edgeStyle=orthogonalEdgeStyle;rounded=0;orthogonalLoop=1;jettySize=auto;html=1;endArrow=oval;endFill=1;" parent="1" edge="1">
          <mxGeometry relative="1" as="geometry">
            <mxPoint x="934" y="1927" as="targetPoint" />
            <mxPoint x="874" y="1927" as="sourcePoint" />
          </mxGeometry>
        </mxCell>
        <mxCell id="UHSjBWqxveViBDuQUsT--118" style="edgeStyle=orthogonalEdgeStyle;rounded=0;orthogonalLoop=1;jettySize=auto;html=1;endArrow=oval;endFill=0;" parent="1" edge="1">
          <mxGeometry relative="1" as="geometry">
            <mxPoint x="959.86" y="1900" as="targetPoint" />
            <mxPoint x="959.86" y="1950" as="sourcePoint" />
          </mxGeometry>
        </mxCell>
        <mxCell id="UHSjBWqxveViBDuQUsT--119" value="&lt;font style=&quot;font-size: 7px;&quot;&gt;Genere&lt;/font&gt;" style="text;html=1;align=center;verticalAlign=middle;resizable=0;points=[];autosize=1;strokeColor=none;fillColor=none;" parent="1" vertex="1">
          <mxGeometry x="935" y="1868" width="50" height="30" as="geometry" />
        </mxCell>
        <mxCell id="UHSjBWqxveViBDuQUsT--121" value="&lt;font style=&quot;font-size: 7px;&quot;&gt;VotoBrano&lt;/font&gt;" style="text;html=1;align=center;verticalAlign=middle;resizable=0;points=[];autosize=1;strokeColor=none;fillColor=none;" parent="1" vertex="1">
          <mxGeometry x="382" y="2187" width="60" height="30" as="geometry" />
        </mxCell>
        <mxCell id="UHSjBWqxveViBDuQUsT--124" value="&lt;font style=&quot;font-size: 7px;&quot;&gt;NomeBrano&lt;/font&gt;" style="text;html=1;align=center;verticalAlign=middle;resizable=0;points=[];autosize=1;strokeColor=none;fillColor=none;" parent="1" vertex="1">
          <mxGeometry x="382" y="2203" width="60" height="30" as="geometry" />
        </mxCell>
        <mxCell id="UHSjBWqxveViBDuQUsT--128" value="" style="endArrow=oval;html=1;rounded=0;endFill=1;" parent="1" edge="1">
          <mxGeometry width="50" height="50" relative="1" as="geometry">
            <mxPoint x="460" y="2233" as="sourcePoint" />
            <mxPoint x="460" y="2193" as="targetPoint" />
          </mxGeometry>
        </mxCell>
        <mxCell id="UHSjBWqxveViBDuQUsT--132" style="edgeStyle=orthogonalEdgeStyle;rounded=0;orthogonalLoop=1;jettySize=auto;html=1;entryX=0.5;entryY=1;entryDx=0;entryDy=0;endArrow=none;endFill=0;" parent="1" source="UHSjBWqxveViBDuQUsT--129" target="UHSjBWqxveViBDuQUsT--17" edge="1">
          <mxGeometry relative="1" as="geometry" />
        </mxCell>
        <mxCell id="UHSjBWqxveViBDuQUsT--133" style="edgeStyle=orthogonalEdgeStyle;rounded=0;orthogonalLoop=1;jettySize=auto;html=1;entryX=0.5;entryY=0;entryDx=0;entryDy=0;endArrow=none;endFill=0;" parent="1" source="UHSjBWqxveViBDuQUsT--129" target="UHSjBWqxveViBDuQUsT--23" edge="1">
          <mxGeometry relative="1" as="geometry" />
        </mxCell>
        <mxCell id="UHSjBWqxveViBDuQUsT--129" value="Di" style="rhombus;whiteSpace=wrap;html=1;" parent="1" vertex="1">
          <mxGeometry x="520" y="2076" width="40" height="40" as="geometry" />
        </mxCell>
        <mxCell id="UHSjBWqxveViBDuQUsT--137" style="edgeStyle=orthogonalEdgeStyle;rounded=0;orthogonalLoop=1;jettySize=auto;html=1;exitX=0.5;exitY=1;exitDx=0;exitDy=0;entryX=1;entryY=0.5;entryDx=0;entryDy=0;endArrow=none;endFill=0;" parent="1" source="UHSjBWqxveViBDuQUsT--134" target="UHSjBWqxveViBDuQUsT--9" edge="1">
          <mxGeometry relative="1" as="geometry">
            <Array as="points">
              <mxPoint x="1060" y="1770" />
              <mxPoint x="1030" y="1770" />
              <mxPoint x="1030" y="1960" />
              <mxPoint x="980" y="1960" />
            </Array>
          </mxGeometry>
        </mxCell>
        <mxCell id="UHSjBWqxveViBDuQUsT--134" value="Porta" style="rhombus;whiteSpace=wrap;html=1;" parent="1" vertex="1">
          <mxGeometry x="1010" y="1580" width="100" height="80" as="geometry" />
        </mxCell>
        <mxCell id="UHSjBWqxveViBDuQUsT--139" value="&lt;font style=&quot;font-size: 7px;&quot;&gt;Nome&lt;/font&gt;" style="text;html=1;align=center;verticalAlign=middle;resizable=0;points=[];autosize=1;strokeColor=none;fillColor=none;" parent="1" vertex="1">
          <mxGeometry x="401" y="1962" width="40" height="30" as="geometry" />
        </mxCell>
        <mxCell id="UHSjBWqxveViBDuQUsT--141" value="&lt;font style=&quot;font-size: 7px;&quot;&gt;NomeAlbum&lt;/font&gt;" style="text;html=1;align=center;verticalAlign=middle;resizable=0;points=[];autosize=1;strokeColor=none;fillColor=none;" parent="1" vertex="1">
          <mxGeometry x="380" y="1977" width="60" height="30" as="geometry" />
        </mxCell>
        <mxCell id="UHSjBWqxveViBDuQUsT--142" value="" style="endArrow=oval;html=1;rounded=0;endFill=1;" parent="1" edge="1">
          <mxGeometry width="50" height="50" relative="1" as="geometry">
            <mxPoint x="460" y="2010" as="sourcePoint" />
            <mxPoint x="460" y="1970" as="targetPoint" />
          </mxGeometry>
        </mxCell>
        <mxCell id="UHSjBWqxveViBDuQUsT--144" value="&lt;font style=&quot;font-size: 7px;&quot;&gt;Genere&lt;/font&gt;" style="text;html=1;align=center;verticalAlign=middle;resizable=0;points=[];autosize=1;strokeColor=none;fillColor=none;" parent="1" vertex="1">
          <mxGeometry x="484" y="2046" width="50" height="30" as="geometry" />
        </mxCell>
        <mxCell id="UHSjBWqxveViBDuQUsT--146" value="&lt;font style=&quot;font-size: 7px;&quot;&gt;Durata&lt;/font&gt;" style="text;html=1;align=center;verticalAlign=middle;resizable=0;points=[];autosize=1;strokeColor=none;fillColor=none;" parent="1" vertex="1">
          <mxGeometry x="489" y="1881" width="40" height="30" as="geometry" />
        </mxCell>
        <mxCell id="UHSjBWqxveViBDuQUsT--148" value="&lt;font style=&quot;font-size: 7px;&quot;&gt;Codice&lt;/font&gt;" style="text;html=1;align=center;verticalAlign=middle;resizable=0;points=[];autosize=1;strokeColor=none;fillColor=none;" parent="1" vertex="1">
          <mxGeometry x="556" y="1288" width="50" height="30" as="geometry" />
        </mxCell>
        <mxCell id="UHSjBWqxveViBDuQUsT--150" value="&lt;font style=&quot;font-size: 7px;&quot;&gt;IDBrano&lt;/font&gt;" style="text;html=1;align=center;verticalAlign=middle;resizable=0;points=[];autosize=1;strokeColor=none;fillColor=none;" parent="1" vertex="1">
          <mxGeometry x="528" y="1288" width="50" height="30" as="geometry" />
        </mxCell>
        <mxCell id="UHSjBWqxveViBDuQUsT--152" value="&lt;font style=&quot;font-size: 7px;&quot;&gt;CFSpett&lt;/font&gt;" style="text;html=1;align=center;verticalAlign=middle;resizable=0;points=[];autosize=1;strokeColor=none;fillColor=none;" parent="1" vertex="1">
          <mxGeometry x="467" y="1288" width="50" height="30" as="geometry" />
        </mxCell>
        <mxCell id="UHSjBWqxveViBDuQUsT--153" style="edgeStyle=orthogonalEdgeStyle;rounded=0;orthogonalLoop=1;jettySize=auto;html=1;exitX=0.25;exitY=0;exitDx=0;exitDy=0;endArrow=oval;endFill=0;" parent="1" edge="1">
          <mxGeometry relative="1" as="geometry">
            <mxPoint x="492.0015384615385" y="1320" as="targetPoint" />
            <mxPoint x="492.04" y="1370" as="sourcePoint" />
          </mxGeometry>
        </mxCell>
        <mxCell id="UHSjBWqxveViBDuQUsT--154" value="&lt;font style=&quot;font-size: 7px;&quot;&gt;CFGiuria&lt;/font&gt;" style="text;html=1;align=center;verticalAlign=middle;resizable=0;points=[];autosize=1;strokeColor=none;fillColor=none;" parent="1" vertex="1">
          <mxGeometry x="497" y="1288" width="50" height="30" as="geometry" />
        </mxCell>
        <mxCell id="UHSjBWqxveViBDuQUsT--155" value="" style="endArrow=oval;html=1;rounded=0;endFill=1;" parent="1" edge="1">
          <mxGeometry width="50" height="50" relative="1" as="geometry">
            <mxPoint x="471" y="1344" as="sourcePoint" />
            <mxPoint x="601" y="1344" as="targetPoint" />
          </mxGeometry>
        </mxCell>
        <mxCell id="UHSjBWqxveViBDuQUsT--164" value="&lt;font style=&quot;font-size: 7px;&quot;&gt;NumPag&lt;/font&gt;" style="text;html=1;align=center;verticalAlign=middle;resizable=0;points=[];autosize=1;strokeColor=none;fillColor=none;" parent="1" vertex="1">
          <mxGeometry x="1732" y="1680" width="50" height="30" as="geometry" />
        </mxCell>
        <mxCell id="UHSjBWqxveViBDuQUsT--165" style="edgeStyle=orthogonalEdgeStyle;rounded=0;orthogonalLoop=1;jettySize=auto;html=1;endArrow=oval;endFill=0;" parent="1" edge="1">
          <mxGeometry relative="1" as="geometry">
            <mxPoint x="1786" y="1710" as="targetPoint" />
            <mxPoint x="1786" y="1760" as="sourcePoint" />
          </mxGeometry>
        </mxCell>
        <mxCell id="UHSjBWqxveViBDuQUsT--166" value="&lt;font style=&quot;font-size: 7px;&quot;&gt;IDFestival&lt;/font&gt;" style="text;html=1;align=center;verticalAlign=middle;resizable=0;points=[];autosize=1;strokeColor=none;fillColor=none;" parent="1" vertex="1">
          <mxGeometry x="1759" y="1680" width="60" height="30" as="geometry" />
        </mxCell>
        <mxCell id="UHSjBWqxveViBDuQUsT--167" style="edgeStyle=orthogonalEdgeStyle;rounded=0;orthogonalLoop=1;jettySize=auto;html=1;endArrow=oval;endFill=0;" parent="1" edge="1">
          <mxGeometry relative="1" as="geometry">
            <mxPoint x="1726" y="1710" as="targetPoint" />
            <mxPoint x="1726" y="1760" as="sourcePoint" />
          </mxGeometry>
        </mxCell>
        <mxCell id="UHSjBWqxveViBDuQUsT--168" value="&lt;font style=&quot;font-size: 7px;&quot;&gt;NomeArte&lt;/font&gt;" style="text;html=1;align=center;verticalAlign=middle;resizable=0;points=[];autosize=1;strokeColor=none;fillColor=none;" parent="1" vertex="1">
          <mxGeometry x="1695" y="1680" width="60" height="30" as="geometry" />
        </mxCell>
        <mxCell id="UHSjBWqxveViBDuQUsT--172" style="edgeStyle=orthogonalEdgeStyle;rounded=0;orthogonalLoop=1;jettySize=auto;html=1;endArrow=oval;endFill=0;" parent="1" edge="1">
          <mxGeometry relative="1" as="geometry">
            <mxPoint x="1695" y="1710" as="targetPoint" />
            <mxPoint x="1695" y="1760" as="sourcePoint" />
          </mxGeometry>
        </mxCell>
        <mxCell id="UHSjBWqxveViBDuQUsT--173" value="&lt;font style=&quot;font-size: 7px;&quot;&gt;IDBrano&lt;/font&gt;" style="text;html=1;align=center;verticalAlign=middle;resizable=0;points=[];autosize=1;strokeColor=none;fillColor=none;" parent="1" vertex="1">
          <mxGeometry x="1668" y="1680" width="50" height="30" as="geometry" />
        </mxCell>
        <mxCell id="UHSjBWqxveViBDuQUsT--174" value="" style="endArrow=oval;html=1;rounded=0;endFill=1;" parent="1" edge="1">
          <mxGeometry width="50" height="50" relative="1" as="geometry">
            <mxPoint x="1675" y="1736" as="sourcePoint" />
            <mxPoint x="1805" y="1736" as="targetPoint" />
          </mxGeometry>
        </mxCell>
        <mxCell id="UHSjBWqxveViBDuQUsT--176" value="&lt;font style=&quot;font-size: 7px;&quot;&gt;User&lt;/font&gt;" style="text;html=1;align=center;verticalAlign=middle;resizable=0;points=[];autosize=1;strokeColor=none;fillColor=none;" parent="1" vertex="1">
          <mxGeometry x="1169" y="1683" width="40" height="30" as="geometry" />
        </mxCell>
        <mxCell id="UHSjBWqxveViBDuQUsT--181" style="edgeStyle=orthogonalEdgeStyle;rounded=0;orthogonalLoop=1;jettySize=auto;html=1;endArrow=oval;endFill=0;" parent="1" edge="1">
          <mxGeometry relative="1" as="geometry">
            <mxPoint x="1189.89" y="1690" as="targetPoint" />
            <mxPoint x="1189.89" y="1650" as="sourcePoint" />
            <Array as="points">
              <mxPoint x="1189.89" y="1650" />
            </Array>
          </mxGeometry>
        </mxCell>
        <mxCell id="UHSjBWqxveViBDuQUsT--182" style="edgeStyle=orthogonalEdgeStyle;rounded=0;orthogonalLoop=1;jettySize=auto;html=1;endArrow=oval;endFill=0;" parent="1" edge="1">
          <mxGeometry relative="1" as="geometry">
            <mxPoint x="1150" y="1640" as="targetPoint" />
            <mxPoint x="1180" y="1640" as="sourcePoint" />
            <Array as="points">
              <mxPoint x="1180" y="1640" />
            </Array>
          </mxGeometry>
        </mxCell>
        <mxCell id="UHSjBWqxveViBDuQUsT--183" value="&lt;font style=&quot;font-size: 7px;&quot;&gt;NomeArte&lt;/font&gt;" style="text;html=1;align=center;verticalAlign=middle;resizable=0;points=[];autosize=1;strokeColor=none;fillColor=none;" parent="1" vertex="1">
          <mxGeometry x="1132" y="1610" width="60" height="30" as="geometry" />
        </mxCell>
        <mxCell id="UHSjBWqxveViBDuQUsT--184" value="&lt;font style=&quot;font-size: 7px;&quot;&gt;IDFestival&lt;/font&gt;" style="text;html=1;align=center;verticalAlign=middle;resizable=0;points=[];autosize=1;strokeColor=none;fillColor=none;" parent="1" vertex="1">
          <mxGeometry x="1190" y="1683" width="60" height="30" as="geometry" />
        </mxCell>
        <mxCell id="UHSjBWqxveViBDuQUsT--187" value="" style="endArrow=none;html=1;rounded=0;" parent="1" edge="1">
          <mxGeometry width="50" height="50" relative="1" as="geometry">
            <mxPoint x="1166" y="1671" as="sourcePoint" />
            <mxPoint x="1166" y="1634" as="targetPoint" />
          </mxGeometry>
        </mxCell>
        <mxCell id="UHSjBWqxveViBDuQUsT--188" value="" style="endArrow=oval;html=1;rounded=0;endFill=1;" parent="1" edge="1">
          <mxGeometry width="50" height="50" relative="1" as="geometry">
            <mxPoint x="1166" y="1671" as="sourcePoint" />
            <mxPoint x="1230" y="1671" as="targetPoint" />
          </mxGeometry>
        </mxCell>
        <mxCell id="UHSjBWqxveViBDuQUsT--190" value="&lt;font style=&quot;font-size: 7px;&quot;&gt;ID&lt;/font&gt;" style="text;html=1;align=center;verticalAlign=middle;resizable=0;points=[];autosize=1;strokeColor=none;fillColor=none;" parent="1" vertex="1">
          <mxGeometry x="1853" y="1603" width="30" height="30" as="geometry" />
        </mxCell>
        <mxCell id="UHSjBWqxveViBDuQUsT--191" style="edgeStyle=orthogonalEdgeStyle;rounded=0;orthogonalLoop=1;jettySize=auto;html=1;endArrow=oval;endFill=0;" parent="1" edge="1">
          <mxGeometry relative="1" as="geometry">
            <mxPoint x="1850" y="1600" as="targetPoint" />
            <mxPoint x="1800" y="1600" as="sourcePoint" />
          </mxGeometry>
        </mxCell>
        <mxCell id="UHSjBWqxveViBDuQUsT--192" value="&lt;font style=&quot;font-size: 7px;&quot;&gt;Località&lt;/font&gt;" style="text;html=1;align=center;verticalAlign=middle;resizable=0;points=[];autosize=1;strokeColor=none;fillColor=none;" parent="1" vertex="1">
          <mxGeometry x="1851" y="1582" width="50" height="30" as="geometry" />
        </mxCell>
        <mxCell id="UHSjBWqxveViBDuQUsT--193" style="edgeStyle=orthogonalEdgeStyle;rounded=0;orthogonalLoop=1;jettySize=auto;html=1;endArrow=oval;endFill=0;" parent="1" edge="1">
          <mxGeometry relative="1" as="geometry">
            <mxPoint x="1850" y="1640" as="targetPoint" />
            <mxPoint x="1800" y="1640" as="sourcePoint" />
          </mxGeometry>
        </mxCell>
        <mxCell id="UHSjBWqxveViBDuQUsT--194" value="&lt;font style=&quot;font-size: 7px;&quot;&gt;Conduttore&lt;/font&gt;" style="text;html=1;align=center;verticalAlign=middle;resizable=0;points=[];autosize=1;strokeColor=none;fillColor=none;" parent="1" vertex="1">
          <mxGeometry x="1851" y="1623" width="60" height="30" as="geometry" />
        </mxCell>
        <mxCell id="UHSjBWqxveViBDuQUsT--196" value="&lt;font style=&quot;font-size: 7px;&quot;&gt;ID&lt;/font&gt;" style="text;html=1;align=center;verticalAlign=middle;resizable=0;points=[];autosize=1;strokeColor=none;fillColor=none;" parent="1" vertex="1">
          <mxGeometry x="1755" y="1288" width="30" height="30" as="geometry" />
        </mxCell>
        <mxCell id="UHSjBWqxveViBDuQUsT--197" style="edgeStyle=orthogonalEdgeStyle;rounded=0;orthogonalLoop=1;jettySize=auto;html=1;endArrow=oval;endFill=0;" parent="1" edge="1">
          <mxGeometry relative="1" as="geometry">
            <mxPoint x="1850" y="1382.5" as="targetPoint" />
            <mxPoint x="1800" y="1382.5" as="sourcePoint" />
          </mxGeometry>
        </mxCell>
        <mxCell id="UHSjBWqxveViBDuQUsT--198" value="&lt;font style=&quot;font-size: 7px;&quot;&gt;Località&lt;/font&gt;" style="text;html=1;align=center;verticalAlign=middle;resizable=0;points=[];autosize=1;strokeColor=none;fillColor=none;" parent="1" vertex="1">
          <mxGeometry x="1851" y="1364.5" width="50" height="30" as="geometry" />
        </mxCell>
        <mxCell id="UHSjBWqxveViBDuQUsT--199" style="edgeStyle=orthogonalEdgeStyle;rounded=0;orthogonalLoop=1;jettySize=auto;html=1;endArrow=oval;endFill=0;" parent="1" edge="1">
          <mxGeometry relative="1" as="geometry">
            <mxPoint x="1850" y="1422.5" as="targetPoint" />
            <mxPoint x="1800" y="1422.5" as="sourcePoint" />
          </mxGeometry>
        </mxCell>
        <mxCell id="UHSjBWqxveViBDuQUsT--200" value="&lt;font style=&quot;font-size: 7px;&quot;&gt;Conduttore&lt;/font&gt;" style="text;html=1;align=center;verticalAlign=middle;resizable=0;points=[];autosize=1;strokeColor=none;fillColor=none;" parent="1" vertex="1">
          <mxGeometry x="1851" y="1405.5" width="60" height="30" as="geometry" />
        </mxCell>
        <mxCell id="UHSjBWqxveViBDuQUsT--202" style="edgeStyle=orthogonalEdgeStyle;rounded=0;orthogonalLoop=1;jettySize=auto;html=1;exitX=0.75;exitY=0;exitDx=0;exitDy=0;endArrow=oval;endFill=0;" parent="1" edge="1">
          <mxGeometry relative="1" as="geometry">
            <mxPoint x="1739.83" y="1320" as="targetPoint" />
            <mxPoint x="1739.83" y="1370" as="sourcePoint" />
          </mxGeometry>
        </mxCell>
        <mxCell id="UHSjBWqxveViBDuQUsT--203" value="&lt;font style=&quot;font-size: 7px;&quot;&gt;Anno&lt;/font&gt;" style="text;html=1;align=center;verticalAlign=middle;resizable=0;points=[];autosize=1;strokeColor=none;fillColor=none;" parent="1" vertex="1">
          <mxGeometry x="1720" y="1288" width="40" height="30" as="geometry" />
        </mxCell>
        <mxCell id="UHSjBWqxveViBDuQUsT--204" value="" style="endArrow=oval;html=1;rounded=0;endFill=1;" parent="1" edge="1">
          <mxGeometry width="50" height="50" relative="1" as="geometry">
            <mxPoint x="1721" y="1346" as="sourcePoint" />
            <mxPoint x="1791" y="1346" as="targetPoint" />
          </mxGeometry>
        </mxCell>
        <mxCell id="UHSjBWqxveViBDuQUsT--206" value="&lt;font style=&quot;font-size: 7px;&quot;&gt;CF&lt;/font&gt;" style="text;html=1;align=center;verticalAlign=middle;resizable=0;points=[];autosize=1;strokeColor=none;fillColor=none;" parent="1" vertex="1">
          <mxGeometry x="1214" y="1289" width="30" height="30" as="geometry" />
        </mxCell>
        <mxCell id="UHSjBWqxveViBDuQUsT--207" style="edgeStyle=orthogonalEdgeStyle;rounded=0;orthogonalLoop=1;jettySize=auto;html=1;endArrow=oval;endFill=0;" parent="1" edge="1">
          <mxGeometry relative="1" as="geometry">
            <mxPoint x="1280.8" y="1320" as="targetPoint" />
            <mxPoint x="1280.8" y="1370" as="sourcePoint" />
          </mxGeometry>
        </mxCell>
        <mxCell id="UHSjBWqxveViBDuQUsT--208" value="&lt;font style=&quot;font-size: 7px;&quot;&gt;NomeArte&lt;/font&gt;" style="text;html=1;align=center;verticalAlign=middle;resizable=0;points=[];autosize=1;strokeColor=none;fillColor=none;" parent="1" vertex="1">
          <mxGeometry x="1252" y="1289" width="60" height="30" as="geometry" />
        </mxCell>
        <mxCell id="UHSjBWqxveViBDuQUsT--209" style="edgeStyle=orthogonalEdgeStyle;rounded=0;orthogonalLoop=1;jettySize=auto;html=1;endArrow=oval;endFill=0;" parent="1" edge="1">
          <mxGeometry relative="1" as="geometry">
            <mxPoint x="1255" y="1320" as="targetPoint" />
            <mxPoint x="1255" y="1370" as="sourcePoint" />
          </mxGeometry>
        </mxCell>
        <mxCell id="UHSjBWqxveViBDuQUsT--210" value="&lt;font style=&quot;font-size: 7px;&quot;&gt;Nome&lt;/font&gt;" style="text;html=1;align=center;verticalAlign=middle;resizable=0;points=[];autosize=1;strokeColor=none;fillColor=none;" parent="1" vertex="1">
          <mxGeometry x="1232" y="1289" width="40" height="30" as="geometry" />
        </mxCell>
        <mxCell id="UHSjBWqxveViBDuQUsT--211" style="edgeStyle=orthogonalEdgeStyle;rounded=0;orthogonalLoop=1;jettySize=auto;html=1;endArrow=oval;endFill=0;" parent="1" edge="1">
          <mxGeometry relative="1" as="geometry">
            <mxPoint x="1200" y="1320" as="targetPoint" />
            <mxPoint x="1200" y="1370" as="sourcePoint" />
          </mxGeometry>
        </mxCell>
        <mxCell id="UHSjBWqxveViBDuQUsT--212" value="&lt;font style=&quot;font-size: 7px;&quot;&gt;Cognome&lt;/font&gt;" style="text;html=1;align=center;verticalAlign=middle;resizable=0;points=[];autosize=1;strokeColor=none;fillColor=none;" parent="1" vertex="1">
          <mxGeometry x="1174" y="1289" width="50" height="30" as="geometry" />
        </mxCell>
        <mxCell id="UHSjBWqxveViBDuQUsT--218" value="&lt;font style=&quot;font-size: 7px;&quot;&gt;Codice&lt;/font&gt;" style="text;html=1;align=center;verticalAlign=middle;resizable=0;points=[];autosize=1;strokeColor=none;fillColor=none;" parent="1" vertex="1">
          <mxGeometry x="1264" y="1011" width="50" height="30" as="geometry" />
        </mxCell>
        <mxCell id="UHSjBWqxveViBDuQUsT--221" value="&lt;font style=&quot;font-size: 7px;&quot;&gt;Costo&lt;/font&gt;" style="text;html=1;align=center;verticalAlign=middle;resizable=0;points=[];autosize=1;strokeColor=none;fillColor=none;" parent="1" vertex="1">
          <mxGeometry x="1170" y="1011" width="40" height="30" as="geometry" />
        </mxCell>
        <mxCell id="UHSjBWqxveViBDuQUsT--223" value="Codice" style="text;html=1;align=center;verticalAlign=middle;resizable=0;points=[];autosize=1;strokeColor=none;fillColor=none;" parent="1" vertex="1">
          <mxGeometry x="1210" y="810" width="60" height="30" as="geometry" />
        </mxCell>
        <mxCell id="UHSjBWqxveViBDuQUsT--224" value="(0,n)" style="text;html=1;align=center;verticalAlign=middle;resizable=0;points=[];autosize=1;strokeColor=none;fillColor=none;" parent="1" vertex="1">
          <mxGeometry x="1235" y="2011" width="50" height="30" as="geometry" />
        </mxCell>
        <mxCell id="UHSjBWqxveViBDuQUsT--225" value="(1,1)" style="text;html=1;align=center;verticalAlign=middle;resizable=0;points=[];autosize=1;strokeColor=none;fillColor=none;" parent="1" vertex="1">
          <mxGeometry x="1235" y="2157" width="50" height="30" as="geometry" />
        </mxCell>
        <mxCell id="UHSjBWqxveViBDuQUsT--226" value="(0,n)" style="text;html=1;align=center;verticalAlign=middle;resizable=0;points=[];autosize=1;strokeColor=none;fillColor=none;" parent="1" vertex="1">
          <mxGeometry x="1306" y="1990" width="50" height="30" as="geometry" />
        </mxCell>
        <mxCell id="UHSjBWqxveViBDuQUsT--231" value="&lt;font style=&quot;font-size: 7px;&quot;&gt;Nome&lt;/font&gt;" style="text;html=1;align=center;verticalAlign=middle;resizable=0;points=[];autosize=1;strokeColor=none;fillColor=none;" parent="1" vertex="1">
          <mxGeometry x="1470" y="2110" width="40" height="30" as="geometry" />
        </mxCell>
        <mxCell id="UHSjBWqxveViBDuQUsT--232" value="(0,5)" style="text;html=1;align=center;verticalAlign=middle;resizable=0;points=[];autosize=1;strokeColor=none;fillColor=none;" parent="1" vertex="1">
          <mxGeometry x="1515" y="2162" width="50" height="30" as="geometry" />
        </mxCell>
        <mxCell id="UHSjBWqxveViBDuQUsT--235" value="&lt;font style=&quot;font-size: 7px;&quot;&gt;ID&lt;/font&gt;" style="text;html=1;align=center;verticalAlign=middle;resizable=0;points=[];autosize=1;strokeColor=none;fillColor=none;" parent="1" vertex="1">
          <mxGeometry x="1638" y="2203" width="30" height="30" as="geometry" />
        </mxCell>
        <mxCell id="UHSjBWqxveViBDuQUsT--236" value="(0,n)" style="text;html=1;align=center;verticalAlign=middle;resizable=0;points=[];autosize=1;strokeColor=none;fillColor=none;" parent="1" vertex="1">
          <mxGeometry x="1132" y="1992" width="50" height="30" as="geometry" />
        </mxCell>
        <mxCell id="UHSjBWqxveViBDuQUsT--237" value="(0,n)" style="text;html=1;align=center;verticalAlign=middle;resizable=0;points=[];autosize=1;strokeColor=none;fillColor=none;" parent="1" vertex="1">
          <mxGeometry x="1132" y="1973" width="50" height="30" as="geometry" />
        </mxCell>
        <mxCell id="UHSjBWqxveViBDuQUsT--238" value="(0,n)" style="text;html=1;align=center;verticalAlign=middle;resizable=0;points=[];autosize=1;strokeColor=none;fillColor=none;" parent="1" vertex="1">
          <mxGeometry x="1132" y="1954" width="50" height="30" as="geometry" />
        </mxCell>
        <mxCell id="UHSjBWqxveViBDuQUsT--239" value="(0,n)" style="text;html=1;align=center;verticalAlign=middle;resizable=0;points=[];autosize=1;strokeColor=none;fillColor=none;" parent="1" vertex="1">
          <mxGeometry x="600" y="2215" width="50" height="30" as="geometry" />
        </mxCell>
        <mxCell id="UHSjBWqxveViBDuQUsT--240" value="(1,1)" style="text;html=1;align=center;verticalAlign=middle;resizable=0;points=[];autosize=1;strokeColor=none;fillColor=none;" parent="1" vertex="1">
          <mxGeometry x="534" y="2162" width="50" height="30" as="geometry" />
        </mxCell>
        <mxCell id="UHSjBWqxveViBDuQUsT--241" value="(0,n)" style="text;html=1;align=center;verticalAlign=middle;resizable=0;points=[];autosize=1;strokeColor=none;fillColor=none;" parent="1" vertex="1">
          <mxGeometry x="534" y="2005" width="50" height="30" as="geometry" />
        </mxCell>
        <mxCell id="UHSjBWqxveViBDuQUsT--243" value="(1,1)" style="text;html=1;align=center;verticalAlign=middle;resizable=0;points=[];autosize=1;strokeColor=none;fillColor=none;" parent="1" vertex="1">
          <mxGeometry x="596" y="1975" width="50" height="30" as="geometry" />
        </mxCell>
        <mxCell id="UHSjBWqxveViBDuQUsT--244" value="(0,n)" style="text;html=1;align=center;verticalAlign=middle;resizable=0;points=[];autosize=1;strokeColor=none;fillColor=none;" parent="1" vertex="1">
          <mxGeometry x="815" y="1975" width="50" height="30" as="geometry" />
        </mxCell>
        <mxCell id="UHSjBWqxveViBDuQUsT--245" value="(0,n)" style="text;html=1;align=center;verticalAlign=middle;resizable=0;points=[];autosize=1;strokeColor=none;fillColor=none;" parent="1" vertex="1">
          <mxGeometry x="563" y="1920" width="50" height="30" as="geometry" />
        </mxCell>
        <mxCell id="UHSjBWqxveViBDuQUsT--246" value="(0,n)" style="text;html=1;align=center;verticalAlign=middle;resizable=0;points=[];autosize=1;strokeColor=none;fillColor=none;" parent="1" vertex="1">
          <mxGeometry x="497" y="1851" width="50" height="30" as="geometry" />
        </mxCell>
        <mxCell id="UHSjBWqxveViBDuQUsT--247" value="(1,1)" style="text;html=1;align=center;verticalAlign=middle;resizable=0;points=[];autosize=1;strokeColor=none;fillColor=none;" parent="1" vertex="1">
          <mxGeometry x="497" y="1427" width="50" height="30" as="geometry" />
        </mxCell>
        <mxCell id="UHSjBWqxveViBDuQUsT--248" value="(1,1)" style="text;html=1;align=center;verticalAlign=middle;resizable=0;points=[];autosize=1;strokeColor=none;fillColor=none;" parent="1" vertex="1">
          <mxGeometry x="1235" y="1560" width="50" height="30" as="geometry" />
        </mxCell>
        <mxCell id="UHSjBWqxveViBDuQUsT--249" value="(1,1)" style="text;html=1;align=center;verticalAlign=middle;resizable=0;points=[];autosize=1;strokeColor=none;fillColor=none;" parent="1" vertex="1">
          <mxGeometry x="1295" y="1614" width="50" height="30" as="geometry" />
        </mxCell>
        <mxCell id="UHSjBWqxveViBDuQUsT--250" value="(1,1)" style="text;html=1;align=center;verticalAlign=middle;resizable=0;points=[];autosize=1;strokeColor=none;fillColor=none;" parent="1" vertex="1">
          <mxGeometry x="1735" y="1427" width="50" height="30" as="geometry" />
        </mxCell>
        <mxCell id="UHSjBWqxveViBDuQUsT--252" value="(1,1)" style="text;html=1;align=center;verticalAlign=middle;resizable=0;points=[];autosize=1;strokeColor=none;fillColor=none;" parent="1" vertex="1">
          <mxGeometry x="1336" y="1120" width="50" height="30" as="geometry" />
        </mxCell>
        <mxCell id="UHSjBWqxveViBDuQUsT--253" value="(1,1)" style="text;html=1;align=center;verticalAlign=middle;resizable=0;points=[];autosize=1;strokeColor=none;fillColor=none;" parent="1" vertex="1">
          <mxGeometry x="1100" y="1120" width="50" height="30" as="geometry" />
        </mxCell>
        <mxCell id="UHSjBWqxveViBDuQUsT--254" value="(1,n)" style="text;html=1;align=center;verticalAlign=middle;resizable=0;points=[];autosize=1;strokeColor=none;fillColor=none;" parent="1" vertex="1">
          <mxGeometry x="1235" y="1060" width="50" height="30" as="geometry" />
        </mxCell>
        <mxCell id="UHSjBWqxveViBDuQUsT--255" value="(0,n)" style="text;html=1;align=center;verticalAlign=middle;resizable=0;points=[];autosize=1;strokeColor=none;fillColor=none;" parent="1" vertex="1">
          <mxGeometry x="1235" y="957" width="50" height="30" as="geometry" />
        </mxCell>
        <mxCell id="UHSjBWqxveViBDuQUsT--256" value="(0,n)" style="text;html=1;align=center;verticalAlign=middle;resizable=0;points=[];autosize=1;strokeColor=none;fillColor=none;" parent="1" vertex="1">
          <mxGeometry x="1336" y="1340" width="50" height="30" as="geometry" />
        </mxCell>
        <mxCell id="UHSjBWqxveViBDuQUsT--257" value="(0,n)" style="text;html=1;align=center;verticalAlign=middle;resizable=0;points=[];autosize=1;strokeColor=none;fillColor=none;" parent="1" vertex="1">
          <mxGeometry x="1100" y="1340.5" width="50" height="30" as="geometry" />
        </mxCell>
        <mxCell id="UHSjBWqxveViBDuQUsT--258" value="(0,n)" style="text;html=1;align=center;verticalAlign=middle;resizable=0;points=[];autosize=1;strokeColor=none;fillColor=none;" parent="1" vertex="1">
          <mxGeometry x="1100" y="1372.5" width="50" height="30" as="geometry" />
        </mxCell>
        <mxCell id="UHSjBWqxveViBDuQUsT--259" value="(0,n)" style="text;html=1;align=center;verticalAlign=middle;resizable=0;points=[];autosize=1;strokeColor=none;fillColor=none;" parent="1" vertex="1">
          <mxGeometry x="1306" y="1950" width="50" height="30" as="geometry" />
        </mxCell>
        <mxCell id="UHSjBWqxveViBDuQUsT--260" value="(1,n)" style="text;html=1;align=center;verticalAlign=middle;resizable=0;points=[];autosize=1;strokeColor=none;fillColor=none;" parent="1" vertex="1">
          <mxGeometry x="1634" y="1784" width="50" height="30" as="geometry" />
        </mxCell>
        <mxCell id="UHSjBWqxveViBDuQUsT--261" value="(0,1)" style="text;html=1;align=center;verticalAlign=middle;resizable=0;points=[];autosize=1;strokeColor=none;fillColor=none;" parent="1" vertex="1">
          <mxGeometry x="1628" y="1614" width="50" height="30" as="geometry" />
        </mxCell>
        <mxCell id="UHSjBWqxveViBDuQUsT--262" value="(1,n)" style="text;html=1;align=center;verticalAlign=middle;resizable=0;points=[];autosize=1;strokeColor=none;fillColor=none;" parent="1" vertex="1">
          <mxGeometry x="1735" y="1560" width="50" height="30" as="geometry" />
        </mxCell>
        <mxCell id="UHSjBWqxveViBDuQUsT--263" value="(1,1)" style="text;html=1;align=center;verticalAlign=middle;resizable=0;points=[];autosize=1;strokeColor=none;fillColor=none;" parent="1" vertex="1">
          <mxGeometry x="1235" y="1652" width="50" height="30" as="geometry" />
        </mxCell>
        <mxCell id="UHSjBWqxveViBDuQUsT--264" value="(0,n)" style="text;html=1;align=center;verticalAlign=middle;resizable=0;points=[];autosize=1;strokeColor=none;fillColor=none;" parent="1" vertex="1">
          <mxGeometry x="1235" y="1860" width="50" height="30" as="geometry" />
        </mxCell>
        <mxCell id="UHSjBWqxveViBDuQUsT--265" value="(0,n)" style="text;html=1;align=center;verticalAlign=middle;resizable=0;points=[];autosize=1;strokeColor=none;fillColor=none;" parent="1" vertex="1">
          <mxGeometry x="1100" y="1417" width="50" height="30" as="geometry" />
        </mxCell>
        <mxCell id="UHSjBWqxveViBDuQUsT--266" value="(0,n)" style="text;html=1;align=center;verticalAlign=middle;resizable=0;points=[];autosize=1;strokeColor=none;fillColor=none;" parent="1" vertex="1">
          <mxGeometry x="1165" y="1424" width="50" height="30" as="geometry" />
        </mxCell>
        <mxCell id="UHSjBWqxveViBDuQUsT--267" value="(0,n)" style="text;html=1;align=center;verticalAlign=middle;resizable=0;points=[];autosize=1;strokeColor=none;fillColor=none;" parent="1" vertex="1">
          <mxGeometry x="1232" y="1424" width="50" height="30" as="geometry" />
        </mxCell>
        <mxCell id="UHSjBWqxveViBDuQUsT--268" value="(1,1)" style="text;html=1;align=center;verticalAlign=middle;resizable=0;points=[];autosize=1;strokeColor=none;fillColor=none;" parent="1" vertex="1">
          <mxGeometry x="977" y="1932" width="50" height="30" as="geometry" />
        </mxCell>
        <mxCell id="UHSjBWqxveViBDuQUsT--269" value="(1,1)" style="text;html=1;align=center;verticalAlign=middle;resizable=0;points=[];autosize=1;strokeColor=none;fillColor=none;" parent="1" vertex="1">
          <mxGeometry x="596" y="1372.5" width="50" height="30" as="geometry" />
        </mxCell>
      </root>
    </mxGraphModel>
  </diagram>
</mxfile>
